# xmcd
#
# Track frame offsets:
#	150
#	14532
#	34181
#	48638
#	64851
#	84618
#	100031
#	117394
#	133379
#	148648
#	162422
#	178914
#	194034
#	210818
#	222946
#	237148
#	251903
#	266239
#	283349
#	312189
#
# Disc length: 4314 seconds
#
# Revision: 1
# Processed by: cddbd v1.4PL0 Copyright (c) Steve Scherf et al.
# Submitted via: audiograbber 1.80
#
DISCID=4010d814
DTITLE=Various Artist - Hott Country 023
DYEAR=1900
DGENRE=
TTITLE0=Brooks and Dunn - He's Got You
TTITLE1=Sammy Kershaw - Love Of My Life
TTITLE2=Deanna Carter - Did I Shave My Legs For This
TTITLE3=Shania Twain - Don't Be Stupid
TTITLE4=Anita Cochran/Steve Wariner - What If I Said
TTITLE5=Neal McCoy - If You Can't Be Good, Be Good At It
TTITLE6=Lorrie Morgan - One Of Those Night Tonight
TTITLE7=Wade Hayes - The Day She Left Tulsa
TTITLE8=Daryle Singletary - The Note
TTITLE9=Dixie Chicks - I Can Love You Better
TTITLE10=Kris Tyler - What A Woman Knows
TTITLE11=David Lee Murphy - Just DOn't Wait Around 'Til She's Leavin'
TTITLE12=Collin Raye/Jim Brickman - The Gift
TTITLE13=Chely Wright - Just Another Heartache
TTITLE14=The Lynns - Nights Like These
TTITLE15=Rick Tippe - Get Hot Or Go Home
TTITLE16=Kevin Sharp - There's Only You
TTITLE17=Jim Brickman/Michelle Wright - Your Love
TTITLE18=Scooter Lee - A Christmas Card
TTITLE19=Data - Data Track
EXTD=
EXTT0=
EXTT1=
EXTT2=
EXTT3=
EXTT4=
EXTT5=
EXTT6=
EXTT7=
EXTT8=
EXTT9=
EXTT10=
EXTT11=
EXTT12=
EXTT13=
EXTT14=
EXTT15=
EXTT16=
EXTT17=
EXTT18=
EXTT19=
PLAYORDER=
